<svg xmlns="http://www.w3.org/2000/svg" xmlns:xlink="http://www.w3.org/1999/xlink" width="281" zoomAndPan="magnify" viewBox="0 0 210.75 41.25" height="55" preserveAspectRatio="xMidYMid meet" version="1.2"><defs><clipPath id="ef06b102a9"><path d="M 15.105469 0 L 46.257812 0 L 46.257812 9.449219 L 15.105469 9.449219 Z M 15.105469 0 "/></clipPath><clipPath id="0b99e2a883"><path d="M 30.675781 0 L 46.25 9.449219 L 15.105469 9.449219 Z M 30.675781 0 "/></clipPath><clipPath id="d2d4e665a0"><path d="M 15 9 L 46.316406 9 L 46.316406 38.820312 L 15 38.820312 Z M 15 9 "/></clipPath><clipPath id="f8a5875fac"><path d="M 16.578125 9.007812 L 44.773438 9.007812 C 45.589844 9.007812 46.25 9.667969 46.25 10.480469 L 46.25 37.347656 C 46.25 38.160156 45.589844 38.820312 44.773438 38.820312 L 16.578125 38.820312 C 15.765625 38.820312 15.105469 38.160156 15.105469 37.347656 L 15.105469 10.480469 C 15.105469 9.667969 15.765625 9.007812 16.578125 9.007812 Z M 16.578125 9.007812 "/></clipPath><clipPath id="2794f3fed0"><path d="M 19.316406 12.328125 L 42.148438 12.328125 L 42.148438 18.882812 L 19.316406 18.882812 Z M 19.316406 12.328125 "/></clipPath><clipPath id="9e3bd7a879"><path d="M 21.527344 12.328125 L 39.917969 12.328125 C 41.136719 12.328125 42.125 13.320312 42.125 14.539062 L 42.125 16.671875 C 42.125 17.890625 41.136719 18.882812 39.917969 18.882812 L 21.527344 18.882812 C 20.304688 18.882812 19.316406 17.890625 19.316406 16.671875 L 19.316406 14.539062 C 19.316406 13.320312 20.304688 12.328125 21.527344 12.328125 Z M 21.527344 12.328125 "/></clipPath><clipPath id="a72585c57c"><path d="M 19.316406 20.476562 L 35.976562 20.476562 L 35.976562 27.027344 L 19.316406 27.027344 Z M 19.316406 20.476562 "/></clipPath><clipPath id="66167afe6b"><path d="M 21.527344 20.476562 L 33.75 20.476562 C 34.972656 20.476562 35.960938 21.464844 35.960938 22.6875 L 35.960938 24.820312 C 35.960938 26.039062 34.972656 27.027344 33.75 27.027344 L 21.527344 27.027344 C 20.304688 27.027344 19.316406 26.039062 19.316406 24.820312 L 19.316406 22.6875 C 19.316406 21.464844 20.304688 20.476562 21.527344 20.476562 Z M 21.527344 20.476562 "/></clipPath><clipPath id="d5ef4918b3"><path d="M 19.316406 28.621094 L 28.582031 28.621094 L 28.582031 35.175781 L 19.316406 35.175781 Z M 19.316406 28.621094 "/></clipPath><clipPath id="9765139831"><path d="M 21.527344 28.621094 L 26.355469 28.621094 C 27.574219 28.621094 28.5625 29.613281 28.5625 30.832031 L 28.5625 32.964844 C 28.5625 34.183594 27.574219 35.175781 26.355469 35.175781 L 21.527344 35.175781 C 20.304688 35.175781 19.316406 34.183594 19.316406 32.964844 L 19.316406 30.832031 C 19.316406 29.613281 20.304688 28.621094 21.527344 28.621094 Z M 21.527344 28.621094 "/></clipPath></defs><g id="449abd68fc"><path style=" stroke:none;fill-rule:nonzero;fill:#000000;fill-opacity:1;" d="M 56.488281 11.207031 C 54.992188 11.898438 54.800781 13.085938 54.800781 21.53125 L 54.800781 29.589844 L 56.949219 29.476562 L 59.101562 29.359375 L 59.179688 25.714844 L 59.21875 22.066406 L 63.367188 21.953125 L 67.480469 21.839844 L 67.480469 18.460938 L 63.367188 18.34375 L 59.21875 18.230469 L 59.101562 17.003906 C 59.027344 16.3125 59.179688 15.429688 59.410156 14.96875 C 59.792969 14.277344 60.179688 14.199219 63.828125 14.199219 L 67.863281 14.199219 L 67.863281 10.746094 L 62.601562 10.785156 C 59.679688 10.785156 56.914062 10.976562 56.488281 11.207031 Z M 56.488281 11.207031 "/><path style=" stroke:none;fill-rule:nonzero;fill:#000000;fill-opacity:1;" d="M 171.234375 20.1875 L 171.234375 29.589844 L 172.121094 29.476562 C 172.925781 29.359375 172.964844 29.207031 172.964844 25.789062 C 172.964844 23.871094 173.042969 22.296875 173.195312 22.335938 C 173.3125 22.414062 174.808594 24.0625 176.578125 26.019531 C 178.960938 28.667969 179.957031 29.550781 180.6875 29.550781 C 181.878906 29.550781 181.917969 29.589844 178.113281 25.214844 L 175.039062 21.722656 L 178.152344 18.613281 C 179.84375 16.925781 181.226562 15.429688 181.226562 15.3125 C 181.226562 15.160156 180.804688 15.042969 180.304688 15.042969 C 179.652344 15.042969 178.460938 16.003906 176.386719 18.078125 C 174.734375 19.765625 173.273438 21.109375 173.15625 21.109375 C 173.042969 21.109375 173.003906 18.765625 173.078125 15.925781 L 173.195312 10.746094 L 171.234375 10.746094 Z M 171.234375 20.1875 "/><path style=" stroke:none;fill-rule:nonzero;fill:#000000;fill-opacity:1;" d="M 71.4375 15.503906 C 69.746094 16.273438 69.363281 18 69.476562 24.253906 L 69.59375 29.359375 L 71.59375 29.476562 L 73.589844 29.589844 L 73.707031 24.101562 L 73.820312 18.613281 L 75.089844 18.5 C 76.320312 18.382812 76.355469 18.34375 76.242188 16.773438 L 76.125 15.160156 L 74.398438 15.082031 C 73.4375 15.007812 72.128906 15.238281 71.4375 15.503906 Z M 71.4375 15.503906 "/><path style=" stroke:none;fill-rule:nonzero;fill:#000000;fill-opacity:1;" d="M 78.125 15.238281 C 77.972656 15.351562 77.855469 16.042969 77.855469 16.773438 L 77.855469 18.039062 L 81.851562 18.039062 C 86.003906 18.039062 87.078125 18.421875 86.539062 19.765625 C 86.386719 20.226562 85.617188 20.339844 83.082031 20.339844 C 81.3125 20.339844 79.546875 20.457031 79.199219 20.570312 C 77.703125 21.148438 76.894531 25.5625 77.894531 27.75 C 78.546875 29.207031 79.816406 29.550781 84.234375 29.550781 C 88 29.550781 88.347656 29.476562 89.191406 28.59375 C 90.113281 27.710938 90.152344 27.480469 90.152344 22.375 C 90.113281 16.65625 89.960938 16.082031 88.078125 15.351562 C 86.925781 14.929688 78.507812 14.816406 78.125 15.238281 Z M 86.695312 24.332031 C 86.695312 26.097656 86.003906 26.558594 83.542969 26.40625 C 81.621094 26.289062 81.507812 26.214844 81.390625 25.214844 C 81.160156 23.257812 81.46875 23.027344 84.195312 23.027344 L 86.695312 23.027344 Z M 86.695312 24.332031 "/><path style=" stroke:none;fill-rule:nonzero;fill:#000000;fill-opacity:1;" d="M 94.800781 15.390625 C 92.996094 16.121094 92.882812 16.695312 92.84375 23.296875 L 92.84375 29.550781 L 96.648438 29.550781 L 96.761719 24.0625 L 96.878906 18.613281 L 99.953125 18.613281 L 100.066406 24.0625 L 100.183594 29.550781 L 103.988281 29.550781 L 103.988281 24.601562 C 103.988281 21.875 104.101562 19.382812 104.21875 19.035156 C 104.523438 18.191406 107.292969 18.191406 107.597656 19.035156 C 107.714844 19.382812 107.828125 21.875 107.828125 24.601562 L 107.828125 29.550781 L 111.671875 29.550781 L 111.671875 23.449219 C 111.671875 17.539062 111.632812 17.269531 110.75 16.234375 C 109.941406 15.3125 109.519531 15.160156 107.0625 15.042969 C 104.753906 14.890625 104.140625 15.007812 103.257812 15.660156 C 102.257812 16.386719 102.21875 16.386719 101.335938 15.695312 C 100.335938 14.890625 96.492188 14.699219 94.800781 15.390625 Z M 94.800781 15.390625 "/><path style=" stroke:none;fill-rule:nonzero;fill:#000000;fill-opacity:1;" d="M 116.054688 15.503906 C 115.398438 15.773438 114.746094 16.3125 114.59375 16.695312 C 114.476562 17.039062 114.363281 19.648438 114.363281 22.492188 C 114.363281 27.480469 114.402344 27.710938 115.324219 28.59375 C 116.207031 29.515625 116.4375 29.550781 121.664062 29.550781 L 127.042969 29.550781 L 127.042969 26.519531 L 122.738281 26.40625 L 118.398438 26.289062 L 118.28125 25.253906 C 118.128906 24.0625 117.898438 24.179688 123.394531 23.105469 L 126.851562 22.453125 L 126.964844 19.917969 C 127.082031 17.65625 126.964844 17.230469 126.121094 16.273438 C 125.238281 15.199219 125.046875 15.160156 121.203125 15.042969 C 118.472656 15.007812 116.898438 15.121094 116.054688 15.503906 Z M 123.199219 19.535156 C 123.199219 20.53125 123.046875 20.648438 121.585938 20.878906 C 120.664062 21.03125 119.550781 21.222656 119.089844 21.378906 C 118.28125 21.570312 118.203125 21.453125 118.203125 19.996094 L 118.203125 18.421875 L 120.703125 18.421875 C 123.199219 18.421875 123.199219 18.421875 123.199219 19.535156 Z M 123.199219 19.535156 "/><path style=" stroke:none;fill-rule:nonzero;fill:#000000;fill-opacity:1;" d="M 128.582031 15.238281 C 128.582031 15.773438 132.039062 28.863281 132.269531 29.207031 C 132.386719 29.398438 132.882812 29.550781 133.382812 29.550781 C 134.421875 29.550781 134.5 29.359375 136.265625 22.492188 C 136.882812 19.957031 137.457031 17.847656 137.535156 17.769531 C 137.609375 17.691406 138.265625 20.074219 138.996094 23.066406 C 139.6875 26.058594 140.570312 28.898438 140.953125 29.320312 C 141.609375 30.128906 141.609375 30.128906 142.375 29.359375 C 142.835938 28.863281 143.722656 26.289062 144.835938 21.953125 C 146.296875 16.425781 146.488281 15.273438 146.027344 15.082031 C 145.71875 14.96875 145.375 14.96875 145.257812 15.082031 C 145.066406 15.238281 142.03125 26.75 142.03125 27.210938 C 142.03125 27.328125 141.875 27.25 141.683594 27.019531 C 141.53125 26.828125 140.800781 24.292969 140.109375 21.378906 C 138.648438 15.46875 138.226562 14.546875 137.148438 15.199219 C 136.652344 15.503906 135.996094 17.347656 134.960938 21.453125 C 134.152344 24.640625 133.382812 27.171875 133.308594 27.097656 C 133.191406 27.019531 132.617188 24.871094 132 22.375 C 130.039062 14.660156 130.15625 14.96875 129.347656 14.96875 C 128.925781 14.96875 128.582031 15.082031 128.582031 15.238281 Z M 128.582031 15.238281 "/><path style=" stroke:none;fill-rule:nonzero;fill:#000000;fill-opacity:1;" d="M 151.828125 15.273438 C 151.214844 15.351562 150.292969 15.773438 149.832031 16.234375 C 148.984375 16.964844 148.949219 17.308594 148.949219 22.335938 C 148.949219 27.480469 148.984375 27.710938 149.90625 28.59375 C 150.753906 29.476562 151.097656 29.550781 154.710938 29.550781 C 158.324219 29.550781 158.667969 29.476562 159.515625 28.59375 C 160.4375 27.710938 160.476562 27.480469 160.476562 22.492188 C 160.476562 17.65625 160.398438 17.230469 159.628906 16.3125 C 158.824219 15.429688 158.4375 15.3125 155.863281 15.238281 C 154.289062 15.199219 152.484375 15.199219 151.828125 15.273438 Z M 158.285156 17.230469 C 159.015625 17.960938 158.9375 27.171875 158.171875 27.632812 C 157.863281 27.824219 156.25 28.015625 154.632812 28.015625 C 150.5625 28.015625 150.484375 27.902344 150.484375 22.492188 C 150.484375 17.847656 150.753906 17.078125 152.40625 16.773438 C 154.058594 16.425781 157.785156 16.734375 158.285156 17.230469 Z M 158.285156 17.230469 "/><path style=" stroke:none;fill-rule:nonzero;fill:#000000;fill-opacity:1;" d="M 166.625 15.351562 C 164.164062 15.964844 163.933594 16.578125 163.933594 23.449219 C 163.933594 29.207031 163.972656 29.550781 164.664062 29.550781 C 165.355469 29.550781 165.394531 29.167969 165.546875 23.601562 C 165.625 20.226562 165.816406 17.539062 166.046875 17.308594 C 166.277344 17.078125 167.046875 16.847656 167.777344 16.773438 C 168.777344 16.65625 169.121094 16.425781 169.121094 15.890625 C 169.121094 15.042969 168.46875 14.929688 166.625 15.351562 Z M 166.625 15.351562 "/><path style=" stroke:none;fill-rule:nonzero;fill:#000000;fill-opacity:1;" d="M 185.453125 15.429688 C 184.761719 15.542969 184.070312 15.890625 183.878906 16.195312 C 182.878906 17.769531 183.03125 21.378906 184.1875 22.296875 C 184.570312 22.644531 186.183594 22.914062 188.296875 23.027344 L 191.792969 23.21875 L 191.910156 25.292969 C 191.988281 26.710938 191.871094 27.480469 191.527344 27.671875 C 191.257812 27.863281 189.335938 28.015625 187.296875 28.015625 C 183.800781 28.015625 183.53125 28.054688 183.53125 28.785156 C 183.53125 29.515625 183.800781 29.550781 187.722656 29.550781 C 193.023438 29.550781 193.5625 29.207031 193.832031 25.867188 C 193.945312 23.988281 193.832031 23.410156 193.214844 22.644531 C 192.523438 21.761719 192.101562 21.683594 188.835938 21.492188 L 185.261719 21.300781 L 185.144531 19.265625 C 185.03125 17.386719 185.109375 17.230469 186.105469 16.847656 C 186.683594 16.617188 188.605469 16.503906 190.335938 16.578125 C 193.292969 16.695312 193.523438 16.65625 193.523438 15.925781 C 193.523438 15.199219 193.253906 15.160156 190.105469 15.160156 C 188.21875 15.160156 186.105469 15.273438 185.453125 15.429688 Z M 185.453125 15.429688 "/><g clip-rule="nonzero" clip-path="url(#ef06b102a9)"><g clip-rule="nonzero" clip-path="url(#0b99e2a883)"><path style=" stroke:none;fill-rule:nonzero;fill:#05b4e3;fill-opacity:1;" d="M 15.105469 0 L 46.257812 0 L 46.257812 9.449219 L 15.105469 9.449219 Z M 15.105469 0 "/></g></g><g clip-rule="nonzero" clip-path="url(#d2d4e665a0)"><g clip-rule="nonzero" clip-path="url(#f8a5875fac)"><path style=" stroke:none;fill-rule:nonzero;fill:#05b4e3;fill-opacity:1;" d="M 15.105469 9.007812 L 46.199219 9.007812 L 46.199219 38.820312 L 15.105469 38.820312 Z M 15.105469 9.007812 "/></g></g><g clip-rule="nonzero" clip-path="url(#2794f3fed0)"><g clip-rule="nonzero" clip-path="url(#9e3bd7a879)"><path style=" stroke:none;fill-rule:nonzero;fill:#fefffe;fill-opacity:1;" d="M 19.316406 12.328125 L 42.121094 12.328125 L 42.121094 18.882812 L 19.316406 18.882812 Z M 19.316406 12.328125 "/></g></g><g clip-rule="nonzero" clip-path="url(#a72585c57c)"><g clip-rule="nonzero" clip-path="url(#66167afe6b)"><path style=" stroke:none;fill-rule:nonzero;fill:#fefffe;fill-opacity:1;" d="M 19.316406 20.476562 L 35.953125 20.476562 L 35.953125 27.027344 L 19.316406 27.027344 Z M 19.316406 20.476562 "/></g></g><g clip-rule="nonzero" clip-path="url(#d5ef4918b3)"><g clip-rule="nonzero" clip-path="url(#9765139831)"><path style=" stroke:none;fill-rule:nonzero;fill:#fefffe;fill-opacity:1;" d="M 19.316406 28.621094 L 28.554688 28.621094 L 28.554688 35.175781 L 19.316406 35.175781 Z M 19.316406 28.621094 "/></g></g></g></svg>